<mxfile host="app.diagrams.net" agent="Mozilla/5.0 (Windows NT 10.0; Win64; x64) AppleWebKit/537.36 (KHTML, like Gecko) Chrome/134.0.0.0 Safari/537.36 OPR/119.0.0.0" version="27.1.1">
  <diagram name="Page-1" id="dl74-cCw4bhNSkX1bsi5">
    <mxGraphModel dx="4749" dy="3057" grid="0" gridSize="10" guides="1" tooltips="1" connect="1" arrows="1" fold="1" page="0" pageScale="1" pageWidth="850" pageHeight="1100" background="light-dark(#FFFFFF,#000000)" math="0" shadow="0">
      <root>
        <mxCell id="0" />
        <mxCell id="1" parent="0" />
        <mxCell id="aArPFsjuYElb7sbuWnyS-1" value="&lt;span&gt;&lt;font style=&quot;font-size: 22px;&quot;&gt;Login&lt;/font&gt;&lt;/span&gt;" style="ellipse;whiteSpace=wrap;html=1;fontStyle=1;fontSize=22;" parent="1" vertex="1">
          <mxGeometry x="433" y="-669" width="180" height="120" as="geometry" />
        </mxCell>
        <mxCell id="aArPFsjuYElb7sbuWnyS-8" value="&lt;span&gt;&lt;font&gt;Register&lt;/font&gt;&lt;/span&gt;" style="ellipse;whiteSpace=wrap;html=1;fontStyle=1;fontSize=30;" parent="1" vertex="1">
          <mxGeometry x="429" y="-436" width="180" height="120" as="geometry" />
        </mxCell>
        <mxCell id="aArPFsjuYElb7sbuWnyS-9" value="" style="group;movable=1;resizable=1;rotatable=1;deletable=1;editable=1;locked=0;connectable=1;fontSize=30;fontStyle=1" parent="1" vertex="1" connectable="0">
          <mxGeometry x="-406" y="-223" width="60" height="160" as="geometry" />
        </mxCell>
        <mxCell id="aArPFsjuYElb7sbuWnyS-2" value="" style="ellipse;whiteSpace=wrap;html=1;aspect=fixed;fontSize=30;fontStyle=1" parent="aArPFsjuYElb7sbuWnyS-9" vertex="1">
          <mxGeometry width="60" height="60" as="geometry" />
        </mxCell>
        <mxCell id="aArPFsjuYElb7sbuWnyS-3" value="" style="endArrow=none;html=1;rounded=0;entryX=0.5;entryY=1;entryDx=0;entryDy=0;fontSize=30;fontStyle=1" parent="aArPFsjuYElb7sbuWnyS-9" target="aArPFsjuYElb7sbuWnyS-2" edge="1">
          <mxGeometry width="50" height="50" relative="1" as="geometry">
            <mxPoint x="30" y="130" as="sourcePoint" />
            <mxPoint x="90" y="110" as="targetPoint" />
          </mxGeometry>
        </mxCell>
        <mxCell id="aArPFsjuYElb7sbuWnyS-4" value="" style="endArrow=none;html=1;rounded=0;fontSize=30;fontStyle=1" parent="aArPFsjuYElb7sbuWnyS-9" edge="1">
          <mxGeometry width="50" height="50" relative="1" as="geometry">
            <mxPoint y="80" as="sourcePoint" />
            <mxPoint x="60" y="80" as="targetPoint" />
            <Array as="points">
              <mxPoint x="30" y="80" />
            </Array>
          </mxGeometry>
        </mxCell>
        <mxCell id="aArPFsjuYElb7sbuWnyS-5" value="" style="endArrow=none;html=1;rounded=0;fontSize=30;fontStyle=1" parent="aArPFsjuYElb7sbuWnyS-9" edge="1">
          <mxGeometry width="50" height="50" relative="1" as="geometry">
            <mxPoint x="10" y="160" as="sourcePoint" />
            <mxPoint x="50" y="160" as="targetPoint" />
            <Array as="points">
              <mxPoint x="30" y="130" />
            </Array>
          </mxGeometry>
        </mxCell>
        <mxCell id="aArPFsjuYElb7sbuWnyS-10" value="" style="endArrow=classic;html=1;rounded=0;entryX=0;entryY=0.5;entryDx=0;entryDy=0;strokeWidth=3;exitX=1;exitY=0.25;exitDx=0;exitDy=0;fontSize=30;fontStyle=1" parent="1" source="aArPFsjuYElb7sbuWnyS-9" target="aArPFsjuYElb7sbuWnyS-1" edge="1">
          <mxGeometry width="50" height="50" relative="1" as="geometry">
            <mxPoint x="-340" y="-50" as="sourcePoint" />
            <mxPoint x="-200" y="50" as="targetPoint" />
          </mxGeometry>
        </mxCell>
        <mxCell id="aArPFsjuYElb7sbuWnyS-11" value="" style="endArrow=classic;html=1;rounded=0;entryX=0;entryY=0.5;entryDx=0;entryDy=0;strokeWidth=3;exitX=1;exitY=0.5;exitDx=0;exitDy=0;fontSize=30;fontStyle=1" parent="1" source="aArPFsjuYElb7sbuWnyS-9" target="aArPFsjuYElb7sbuWnyS-8" edge="1">
          <mxGeometry width="50" height="50" relative="1" as="geometry">
            <mxPoint x="-330" y="-20" as="sourcePoint" />
            <mxPoint x="440" y="110" as="targetPoint" />
          </mxGeometry>
        </mxCell>
        <mxCell id="aArPFsjuYElb7sbuWnyS-12" value="&lt;span&gt;&lt;font&gt;Mobile Application User&lt;/font&gt;&lt;/span&gt;" style="text;strokeColor=none;align=center;fillColor=none;html=1;verticalAlign=middle;whiteSpace=wrap;rounded=0;fontStyle=1;fontSize=30;" parent="1" vertex="1">
          <mxGeometry x="-555" y="-30" width="340" height="90" as="geometry" />
        </mxCell>
        <mxCell id="aArPFsjuYElb7sbuWnyS-13" value="" style="endArrow=classic;html=1;rounded=0;entryX=0.5;entryY=1;entryDx=0;entryDy=0;exitX=0.5;exitY=0;exitDx=0;exitDy=0;strokeWidth=3;fontSize=30;fontStyle=1" parent="1" source="aArPFsjuYElb7sbuWnyS-8" target="aArPFsjuYElb7sbuWnyS-1" edge="1">
          <mxGeometry relative="1" as="geometry">
            <mxPoint x="350" y="-210" as="sourcePoint" />
            <mxPoint x="440" y="-50" as="targetPoint" />
          </mxGeometry>
        </mxCell>
        <mxCell id="aArPFsjuYElb7sbuWnyS-14" value="&lt;font&gt;Login after register&lt;/font&gt;" style="edgeLabel;resizable=0;html=1;;align=center;verticalAlign=middle;fontSize=30;fontStyle=1" parent="aArPFsjuYElb7sbuWnyS-13" connectable="0" vertex="1">
          <mxGeometry relative="1" as="geometry" />
        </mxCell>
        <mxCell id="aArPFsjuYElb7sbuWnyS-15" value="&lt;span&gt;&lt;font&gt;Dashboard&lt;/font&gt;&lt;/span&gt;" style="ellipse;whiteSpace=wrap;html=1;fontStyle=1;fontSize=30;" parent="1" vertex="1">
          <mxGeometry x="443" y="-303" width="180" height="120" as="geometry" />
        </mxCell>
        <mxCell id="aArPFsjuYElb7sbuWnyS-16" value="" style="endArrow=classic;html=1;rounded=0;entryX=0;entryY=0.5;entryDx=0;entryDy=0;strokeWidth=3;exitX=0.975;exitY=0.613;exitDx=0;exitDy=0;exitPerimeter=0;fontSize=30;fontStyle=1" parent="1" source="aArPFsjuYElb7sbuWnyS-9" target="aArPFsjuYElb7sbuWnyS-15" edge="1">
          <mxGeometry width="50" height="50" relative="1" as="geometry">
            <mxPoint x="-320" y="20" as="sourcePoint" />
            <mxPoint x="600" y="-10" as="targetPoint" />
          </mxGeometry>
        </mxCell>
        <mxCell id="aArPFsjuYElb7sbuWnyS-25" value="&lt;span&gt;&lt;font&gt;User Pet Applications&lt;/font&gt;&lt;/span&gt;" style="ellipse;whiteSpace=wrap;html=1;fontStyle=1;fontSize=30;" parent="1" vertex="1">
          <mxGeometry x="670" y="-387" width="180" height="120" as="geometry" />
        </mxCell>
        <mxCell id="aArPFsjuYElb7sbuWnyS-26" value="" style="endArrow=classic;html=1;rounded=0;entryX=0;entryY=0.5;entryDx=0;entryDy=0;exitX=1;exitY=0.5;exitDx=0;exitDy=0;strokeWidth=3;fontSize=30;fontStyle=1" parent="1" source="aArPFsjuYElb7sbuWnyS-15" target="aArPFsjuYElb7sbuWnyS-25" edge="1">
          <mxGeometry width="50" height="50" relative="1" as="geometry">
            <mxPoint x="460" y="280" as="sourcePoint" />
            <mxPoint x="1030" y="-80" as="targetPoint" />
          </mxGeometry>
        </mxCell>
        <mxCell id="aArPFsjuYElb7sbuWnyS-27" value="&lt;span&gt;&lt;font&gt;User Active Applications&lt;/font&gt;&lt;/span&gt;" style="ellipse;whiteSpace=wrap;html=1;fontStyle=1;fontSize=30;" parent="1" vertex="1">
          <mxGeometry x="843" y="-262" width="180" height="120" as="geometry" />
        </mxCell>
        <mxCell id="aArPFsjuYElb7sbuWnyS-28" value="" style="endArrow=classic;html=1;rounded=0;exitX=1;exitY=0.5;exitDx=0;exitDy=0;entryX=0.5;entryY=0;entryDx=0;entryDy=0;strokeWidth=3;fontSize=30;fontStyle=1" parent="1" source="aArPFsjuYElb7sbuWnyS-25" target="aArPFsjuYElb7sbuWnyS-27" edge="1">
          <mxGeometry width="50" height="50" relative="1" as="geometry">
            <mxPoint x="730" y="-40" as="sourcePoint" />
            <mxPoint x="950" y="-110" as="targetPoint" />
          </mxGeometry>
        </mxCell>
        <mxCell id="aArPFsjuYElb7sbuWnyS-29" value="&lt;span&gt;&lt;font&gt;Wait for approval&lt;/font&gt;&lt;/span&gt;" style="ellipse;whiteSpace=wrap;html=1;fontStyle=1;fontSize=30;" parent="1" vertex="1">
          <mxGeometry x="1057" y="-249" width="180" height="120" as="geometry" />
        </mxCell>
        <mxCell id="aArPFsjuYElb7sbuWnyS-31" value="&lt;span&gt;&lt;font&gt;Rejected&lt;/font&gt;&lt;/span&gt;" style="ellipse;whiteSpace=wrap;html=1;fontStyle=1;fontSize=30;" parent="1" vertex="1">
          <mxGeometry x="1205" y="-129" width="180" height="120" as="geometry" />
        </mxCell>
        <mxCell id="aArPFsjuYElb7sbuWnyS-33" value="&lt;span&gt;&lt;font&gt;Approved&lt;/font&gt;&lt;/span&gt;" style="ellipse;whiteSpace=wrap;html=1;fontStyle=1;fontSize=30;" parent="1" vertex="1">
          <mxGeometry x="978" y="-129" width="180" height="120" as="geometry" />
        </mxCell>
        <mxCell id="aArPFsjuYElb7sbuWnyS-37" value="&lt;span&gt;&lt;font&gt;View Recommended pets&lt;/font&gt;&lt;/span&gt;" style="ellipse;whiteSpace=wrap;html=1;fontStyle=1;fontSize=30;" parent="1" vertex="1">
          <mxGeometry x="450" y="-150" width="180" height="120" as="geometry" />
        </mxCell>
        <mxCell id="aArPFsjuYElb7sbuWnyS-38" value="" style="endArrow=classic;html=1;rounded=0;entryX=0.5;entryY=0;entryDx=0;entryDy=0;exitX=0.5;exitY=1;exitDx=0;exitDy=0;strokeWidth=3;fontSize=30;fontStyle=1" parent="1" source="aArPFsjuYElb7sbuWnyS-15" target="aArPFsjuYElb7sbuWnyS-37" edge="1">
          <mxGeometry width="50" height="50" relative="1" as="geometry">
            <mxPoint x="720" y="-50" as="sourcePoint" />
            <mxPoint x="820" y="-50" as="targetPoint" />
          </mxGeometry>
        </mxCell>
        <mxCell id="aArPFsjuYElb7sbuWnyS-39" value="&lt;span&gt;&lt;font&gt;Browse Pets&lt;/font&gt;&lt;/span&gt;" style="ellipse;whiteSpace=wrap;html=1;fontStyle=1;fontSize=30;" parent="1" vertex="1">
          <mxGeometry x="463" y="-19" width="180" height="120" as="geometry" />
        </mxCell>
        <mxCell id="aArPFsjuYElb7sbuWnyS-40" value="" style="endArrow=classic;html=1;rounded=0;exitX=0.5;exitY=1;exitDx=0;exitDy=0;entryX=0.5;entryY=0;entryDx=0;entryDy=0;strokeWidth=3;fontSize=30;fontStyle=1" parent="1" source="aArPFsjuYElb7sbuWnyS-37" target="aArPFsjuYElb7sbuWnyS-39" edge="1">
          <mxGeometry width="50" height="50" relative="1" as="geometry">
            <mxPoint x="590" y="-80" as="sourcePoint" />
            <mxPoint x="740" y="80" as="targetPoint" />
          </mxGeometry>
        </mxCell>
        <mxCell id="aArPFsjuYElb7sbuWnyS-41" value="&lt;span&gt;&lt;font&gt;View Pets Details&lt;/font&gt;&lt;/span&gt;" style="ellipse;whiteSpace=wrap;html=1;fontStyle=1;fontSize=30;" parent="1" vertex="1">
          <mxGeometry x="463" y="112" width="180" height="120" as="geometry" />
        </mxCell>
        <mxCell id="aArPFsjuYElb7sbuWnyS-42" value="" style="endArrow=classic;html=1;rounded=0;exitX=0.5;exitY=1;exitDx=0;exitDy=0;entryX=0.5;entryY=0;entryDx=0;entryDy=0;strokeWidth=3;fontSize=30;fontStyle=1" parent="1" source="aArPFsjuYElb7sbuWnyS-39" target="aArPFsjuYElb7sbuWnyS-41" edge="1">
          <mxGeometry width="50" height="50" relative="1" as="geometry">
            <mxPoint x="560" y="80" as="sourcePoint" />
            <mxPoint x="560" y="160" as="targetPoint" />
          </mxGeometry>
        </mxCell>
        <mxCell id="aArPFsjuYElb7sbuWnyS-43" value="&lt;span&gt;&lt;font&gt;User Submit Pet Application&lt;/font&gt;&lt;/span&gt;" style="ellipse;whiteSpace=wrap;html=1;fontStyle=1;fontSize=30;" parent="1" vertex="1">
          <mxGeometry x="750" y="37" width="190" height="150" as="geometry" />
        </mxCell>
        <mxCell id="aArPFsjuYElb7sbuWnyS-44" value="" style="endArrow=classic;html=1;rounded=0;exitX=1;exitY=0.5;exitDx=0;exitDy=0;entryX=0;entryY=0.444;entryDx=0;entryDy=0;entryPerimeter=0;strokeWidth=3;fontSize=30;fontStyle=1" parent="1" source="aArPFsjuYElb7sbuWnyS-41" target="aArPFsjuYElb7sbuWnyS-43" edge="1">
          <mxGeometry width="50" height="50" relative="1" as="geometry">
            <mxPoint x="590" y="250" as="sourcePoint" />
            <mxPoint x="680" y="330" as="targetPoint" />
          </mxGeometry>
        </mxCell>
        <mxCell id="aArPFsjuYElb7sbuWnyS-46" value="&lt;span&gt;&lt;font&gt;Pet Tracking&lt;/font&gt;&lt;/span&gt;" style="ellipse;whiteSpace=wrap;html=1;fontStyle=1;fontSize=30;" parent="1" vertex="1">
          <mxGeometry x="443" y="251" width="180" height="120" as="geometry" />
        </mxCell>
        <mxCell id="aArPFsjuYElb7sbuWnyS-47" value="&lt;span&gt;&lt;font&gt;Select Pet to track&lt;/font&gt;&lt;/span&gt;" style="ellipse;whiteSpace=wrap;html=1;fontStyle=1;fontSize=30;" parent="1" vertex="1">
          <mxGeometry x="479" y="437" width="180" height="120" as="geometry" />
        </mxCell>
        <mxCell id="aArPFsjuYElb7sbuWnyS-48" value="&lt;span&gt;&lt;font&gt;Click Start Live Tracking&lt;/font&gt;&lt;/span&gt;" style="ellipse;whiteSpace=wrap;html=1;fontStyle=1;fontSize=30;" parent="1" vertex="1">
          <mxGeometry x="708" y="398" width="180" height="120" as="geometry" />
        </mxCell>
        <mxCell id="aArPFsjuYElb7sbuWnyS-49" value="&lt;span&gt;&lt;font&gt;View Map to view pet location&lt;/font&gt;&lt;/span&gt;" style="ellipse;whiteSpace=wrap;html=1;fontStyle=1;fontSize=30;" parent="1" vertex="1">
          <mxGeometry x="926" y="398" width="210" height="120" as="geometry" />
        </mxCell>
        <mxCell id="aArPFsjuYElb7sbuWnyS-50" value="&lt;span&gt;&lt;font&gt;Tracking History&lt;/font&gt;&lt;/span&gt;" style="ellipse;whiteSpace=wrap;html=1;fontStyle=1;fontSize=30;" parent="1" vertex="1">
          <mxGeometry x="299" y="391" width="180" height="120" as="geometry" />
        </mxCell>
        <mxCell id="aArPFsjuYElb7sbuWnyS-51" value="" style="endArrow=classic;html=1;rounded=0;exitX=0.5;exitY=1;exitDx=0;exitDy=0;entryX=0.5;entryY=0;entryDx=0;entryDy=0;strokeWidth=3;fontSize=30;fontStyle=1" parent="1" source="aArPFsjuYElb7sbuWnyS-46" target="aArPFsjuYElb7sbuWnyS-47" edge="1">
          <mxGeometry width="50" height="50" relative="1" as="geometry">
            <mxPoint x="640" y="176" as="sourcePoint" />
            <mxPoint x="708" y="170" as="targetPoint" />
          </mxGeometry>
        </mxCell>
        <mxCell id="aArPFsjuYElb7sbuWnyS-52" value="" style="endArrow=classic;html=1;rounded=0;exitX=1;exitY=0.5;exitDx=0;exitDy=0;entryX=0;entryY=0.5;entryDx=0;entryDy=0;strokeWidth=3;fontSize=30;fontStyle=1" parent="1" source="aArPFsjuYElb7sbuWnyS-47" target="aArPFsjuYElb7sbuWnyS-48" edge="1">
          <mxGeometry width="50" height="50" relative="1" as="geometry">
            <mxPoint x="630" y="300" as="sourcePoint" />
            <mxPoint x="690" y="300" as="targetPoint" />
          </mxGeometry>
        </mxCell>
        <mxCell id="aArPFsjuYElb7sbuWnyS-53" value="" style="endArrow=classic;html=1;rounded=0;exitX=1;exitY=0.5;exitDx=0;exitDy=0;entryX=0;entryY=0.5;entryDx=0;entryDy=0;strokeWidth=3;fontSize=30;fontStyle=1" parent="1" source="aArPFsjuYElb7sbuWnyS-48" target="aArPFsjuYElb7sbuWnyS-49" edge="1">
          <mxGeometry width="50" height="50" relative="1" as="geometry">
            <mxPoint x="830" y="320" as="sourcePoint" />
            <mxPoint x="880" y="320" as="targetPoint" />
          </mxGeometry>
        </mxCell>
        <mxCell id="aArPFsjuYElb7sbuWnyS-54" value="" style="endArrow=classic;html=1;rounded=0;exitX=0;exitY=1;exitDx=0;exitDy=0;entryX=1;entryY=0;entryDx=0;entryDy=0;strokeWidth=3;fontSize=30;fontStyle=1" parent="1" source="aArPFsjuYElb7sbuWnyS-46" target="aArPFsjuYElb7sbuWnyS-50" edge="1">
          <mxGeometry width="50" height="50" relative="1" as="geometry">
            <mxPoint x="610" y="290" as="sourcePoint" />
            <mxPoint x="670" y="290" as="targetPoint" />
          </mxGeometry>
        </mxCell>
        <mxCell id="aArPFsjuYElb7sbuWnyS-55" value="&lt;span&gt;&lt;font&gt;Pet Care Tips&lt;/font&gt;&lt;/span&gt;" style="ellipse;whiteSpace=wrap;html=1;fontStyle=1;fontSize=30;" parent="1" vertex="1">
          <mxGeometry x="460" y="570" width="180" height="120" as="geometry" />
        </mxCell>
        <mxCell id="aArPFsjuYElb7sbuWnyS-56" value="&lt;span&gt;&lt;font&gt;Filter Pet Tips&lt;/font&gt;&lt;/span&gt;" style="ellipse;whiteSpace=wrap;html=1;fontStyle=1;fontSize=30;" parent="1" vertex="1">
          <mxGeometry x="603" y="683" width="180" height="120" as="geometry" />
        </mxCell>
        <mxCell id="aArPFsjuYElb7sbuWnyS-57" value="" style="endArrow=classic;html=1;rounded=0;entryX=0.5;entryY=0;entryDx=0;entryDy=0;exitX=0.958;exitY=0.771;exitDx=0;exitDy=0;strokeWidth=3;fontSize=30;fontStyle=1;exitPerimeter=0;" parent="1" source="aArPFsjuYElb7sbuWnyS-55" target="aArPFsjuYElb7sbuWnyS-56" edge="1">
          <mxGeometry width="50" height="50" relative="1" as="geometry">
            <mxPoint x="590" y="470" as="sourcePoint" />
            <mxPoint x="706" y="394" as="targetPoint" />
          </mxGeometry>
        </mxCell>
        <mxCell id="aArPFsjuYElb7sbuWnyS-58" value="&lt;span&gt;&lt;font&gt;View Pet Care tips&lt;/font&gt;&lt;/span&gt;" style="ellipse;whiteSpace=wrap;html=1;fontStyle=1;fontSize=30;" parent="1" vertex="1">
          <mxGeometry x="798" y="634" width="180" height="120" as="geometry" />
        </mxCell>
        <mxCell id="aArPFsjuYElb7sbuWnyS-60" value="" style="endArrow=classic;html=1;rounded=0;entryX=0;entryY=0.5;entryDx=0;entryDy=0;exitX=1;exitY=0.5;exitDx=0;exitDy=0;strokeWidth=3;fontSize=30;fontStyle=1" parent="1" source="aArPFsjuYElb7sbuWnyS-56" target="aArPFsjuYElb7sbuWnyS-58" edge="1">
          <mxGeometry width="50" height="50" relative="1" as="geometry">
            <mxPoint x="650" y="590" as="sourcePoint" />
            <mxPoint x="690" y="590" as="targetPoint" />
          </mxGeometry>
        </mxCell>
        <mxCell id="aArPFsjuYElb7sbuWnyS-61" value="&lt;span&gt;&lt;font&gt;Reviews &amp;amp; Feedback&lt;/font&gt;&lt;/span&gt;" style="ellipse;whiteSpace=wrap;html=1;fontStyle=1;fontSize=30;" parent="1" vertex="1">
          <mxGeometry x="360" y="810" width="180" height="120" as="geometry" />
        </mxCell>
        <mxCell id="aArPFsjuYElb7sbuWnyS-62" value="&lt;span&gt;&lt;font&gt;Available for review pets&lt;/font&gt;&lt;/span&gt;" style="ellipse;whiteSpace=wrap;html=1;fontStyle=1;fontSize=30;" parent="1" vertex="1">
          <mxGeometry x="37" y="870" width="180" height="120" as="geometry" />
        </mxCell>
        <mxCell id="aArPFsjuYElb7sbuWnyS-63" value="&lt;span&gt;&lt;font&gt;Write your pet review&lt;/font&gt;&lt;/span&gt;" style="ellipse;whiteSpace=wrap;html=1;fontStyle=1;fontSize=30;" parent="1" vertex="1">
          <mxGeometry x="400" y="955" width="180" height="120" as="geometry" />
        </mxCell>
        <mxCell id="aArPFsjuYElb7sbuWnyS-64" value="&lt;span&gt;&lt;font&gt;View your reviews&lt;/font&gt;&lt;/span&gt;" style="ellipse;whiteSpace=wrap;html=1;fontStyle=1;fontSize=30;" parent="1" vertex="1">
          <mxGeometry x="635" y="953" width="180" height="120" as="geometry" />
        </mxCell>
        <mxCell id="aArPFsjuYElb7sbuWnyS-65" value="&lt;span&gt;&lt;font&gt;View Guidelines&lt;/font&gt;&lt;/span&gt;" style="ellipse;whiteSpace=wrap;html=1;fontStyle=1;fontSize=30;" parent="1" vertex="1">
          <mxGeometry x="860" y="908" width="290" height="180" as="geometry" />
        </mxCell>
        <mxCell id="aArPFsjuYElb7sbuWnyS-66" value="&lt;span&gt;&lt;font&gt;Logout&lt;/font&gt;&lt;/span&gt;" style="ellipse;whiteSpace=wrap;html=1;fontStyle=1;fontSize=30;" parent="1" vertex="1">
          <mxGeometry x="463" y="1177" width="260" height="180" as="geometry" />
        </mxCell>
        <mxCell id="aArPFsjuYElb7sbuWnyS-68" value="" style="endArrow=classic;html=1;rounded=0;entryX=1;entryY=0;entryDx=0;entryDy=0;exitX=0;exitY=1;exitDx=0;exitDy=0;strokeWidth=3;fontSize=30;fontStyle=1" parent="1" source="aArPFsjuYElb7sbuWnyS-61" target="aArPFsjuYElb7sbuWnyS-62" edge="1">
          <mxGeometry width="50" height="50" relative="1" as="geometry">
            <mxPoint x="640" y="610" as="sourcePoint" />
            <mxPoint x="700" y="610" as="targetPoint" />
          </mxGeometry>
        </mxCell>
        <mxCell id="aArPFsjuYElb7sbuWnyS-69" value="" style="endArrow=classic;html=1;rounded=0;entryX=0;entryY=0.5;entryDx=0;entryDy=0;exitX=1;exitY=0.5;exitDx=0;exitDy=0;strokeWidth=3;fontSize=30;fontStyle=1" parent="1" source="aArPFsjuYElb7sbuWnyS-62" target="aArPFsjuYElb7sbuWnyS-63" edge="1">
          <mxGeometry width="50" height="50" relative="1" as="geometry">
            <mxPoint x="630" y="720" as="sourcePoint" />
            <mxPoint x="690" y="720" as="targetPoint" />
          </mxGeometry>
        </mxCell>
        <mxCell id="aArPFsjuYElb7sbuWnyS-70" value="" style="endArrow=classic;html=1;rounded=0;entryX=0;entryY=0.5;entryDx=0;entryDy=0;exitX=1;exitY=0.5;exitDx=0;exitDy=0;strokeWidth=3;fontSize=30;fontStyle=1" parent="1" source="aArPFsjuYElb7sbuWnyS-63" target="aArPFsjuYElb7sbuWnyS-64" edge="1">
          <mxGeometry width="50" height="50" relative="1" as="geometry">
            <mxPoint x="790" y="690" as="sourcePoint" />
            <mxPoint x="830" y="690" as="targetPoint" />
          </mxGeometry>
        </mxCell>
        <mxCell id="aArPFsjuYElb7sbuWnyS-72" value="" style="endArrow=classic;html=1;rounded=0;entryX=0;entryY=0.5;entryDx=0;entryDy=0;exitX=1;exitY=0.5;exitDx=0;exitDy=0;strokeWidth=3;fontSize=30;fontStyle=1" parent="1" source="aArPFsjuYElb7sbuWnyS-64" target="aArPFsjuYElb7sbuWnyS-65" edge="1">
          <mxGeometry width="50" height="50" relative="1" as="geometry">
            <mxPoint x="960" y="720" as="sourcePoint" />
            <mxPoint x="1000" y="720" as="targetPoint" />
          </mxGeometry>
        </mxCell>
        <mxCell id="aArPFsjuYElb7sbuWnyS-73" value="" style="endArrow=classic;html=1;rounded=0;entryX=0;entryY=0.5;entryDx=0;entryDy=0;strokeWidth=3;exitX=1;exitY=0.75;exitDx=0;exitDy=0;fontSize=30;fontStyle=1" parent="1" source="aArPFsjuYElb7sbuWnyS-9" target="aArPFsjuYElb7sbuWnyS-39" edge="1">
          <mxGeometry width="50" height="50" relative="1" as="geometry">
            <mxPoint x="-320" y="60" as="sourcePoint" />
            <mxPoint x="710" y="200" as="targetPoint" />
          </mxGeometry>
        </mxCell>
        <mxCell id="aArPFsjuYElb7sbuWnyS-74" value="" style="endArrow=classic;html=1;rounded=0;strokeWidth=3;exitX=1;exitY=1;exitDx=0;exitDy=0;fontSize=30;fontStyle=1;entryX=0;entryY=0;entryDx=0;entryDy=0;" parent="1" source="aArPFsjuYElb7sbuWnyS-9" edge="1" target="aArPFsjuYElb7sbuWnyS-46">
          <mxGeometry width="50" height="50" relative="1" as="geometry">
            <mxPoint x="-290" y="100" as="sourcePoint" />
            <mxPoint x="450" y="280" as="targetPoint" />
          </mxGeometry>
        </mxCell>
        <mxCell id="aArPFsjuYElb7sbuWnyS-75" value="" style="endArrow=classic;html=1;rounded=0;entryX=0;entryY=0.5;entryDx=0;entryDy=0;exitX=1;exitY=0.75;exitDx=0;exitDy=0;strokeWidth=3;fontSize=30;fontStyle=1" parent="1" source="aArPFsjuYElb7sbuWnyS-12" target="aArPFsjuYElb7sbuWnyS-55" edge="1">
          <mxGeometry width="50" height="50" relative="1" as="geometry">
            <mxPoint x="-110" y="290" as="sourcePoint" />
            <mxPoint x="800" y="370" as="targetPoint" />
          </mxGeometry>
        </mxCell>
        <mxCell id="aArPFsjuYElb7sbuWnyS-76" value="" style="endArrow=classic;html=1;rounded=0;entryX=0;entryY=0.5;entryDx=0;entryDy=0;exitX=1;exitY=1;exitDx=0;exitDy=0;strokeWidth=3;fontSize=30;fontStyle=1" parent="1" source="aArPFsjuYElb7sbuWnyS-12" target="aArPFsjuYElb7sbuWnyS-61" edge="1">
          <mxGeometry width="50" height="50" relative="1" as="geometry">
            <mxPoint x="-70" y="380" as="sourcePoint" />
            <mxPoint x="650" y="640" as="targetPoint" />
          </mxGeometry>
        </mxCell>
        <mxCell id="aArPFsjuYElb7sbuWnyS-77" value="" style="endArrow=classic;html=1;rounded=0;entryX=0;entryY=0.5;entryDx=0;entryDy=0;exitX=0.75;exitY=1;exitDx=0;exitDy=0;strokeWidth=3;fontSize=30;fontStyle=1" parent="1" source="aArPFsjuYElb7sbuWnyS-12" target="aArPFsjuYElb7sbuWnyS-66" edge="1">
          <mxGeometry width="50" height="50" relative="1" as="geometry">
            <mxPoint x="-80" y="410" as="sourcePoint" />
            <mxPoint x="860" y="940" as="targetPoint" />
          </mxGeometry>
        </mxCell>
        <mxCell id="aArPFsjuYElb7sbuWnyS-79" value="&lt;span&gt;&lt;font&gt;Web User&lt;/font&gt;&lt;/span&gt;" style="text;strokeColor=none;align=center;fillColor=none;html=1;verticalAlign=middle;whiteSpace=wrap;rounded=0;fontStyle=1;fontSize=30;" parent="1" vertex="1">
          <mxGeometry x="-495" y="727" width="229" height="40" as="geometry" />
        </mxCell>
        <mxCell id="aArPFsjuYElb7sbuWnyS-83" value="" style="group;movable=1;resizable=1;rotatable=1;deletable=1;editable=1;locked=0;connectable=1;fontSize=30;fontStyle=1" parent="1" vertex="1" connectable="0">
          <mxGeometry x="-410.5" y="550" width="60" height="160" as="geometry" />
        </mxCell>
        <mxCell id="aArPFsjuYElb7sbuWnyS-84" value="" style="ellipse;whiteSpace=wrap;html=1;aspect=fixed;fontSize=30;fontStyle=1" parent="aArPFsjuYElb7sbuWnyS-83" vertex="1">
          <mxGeometry width="60" height="60" as="geometry" />
        </mxCell>
        <mxCell id="aArPFsjuYElb7sbuWnyS-85" value="" style="endArrow=none;html=1;rounded=0;entryX=0.5;entryY=1;entryDx=0;entryDy=0;strokeWidth=3;fontSize=30;fontStyle=1" parent="aArPFsjuYElb7sbuWnyS-83" target="aArPFsjuYElb7sbuWnyS-84" edge="1">
          <mxGeometry width="50" height="50" relative="1" as="geometry">
            <mxPoint x="30" y="130" as="sourcePoint" />
            <mxPoint x="90" y="110" as="targetPoint" />
          </mxGeometry>
        </mxCell>
        <mxCell id="aArPFsjuYElb7sbuWnyS-86" value="" style="endArrow=none;html=1;rounded=0;strokeWidth=3;fontSize=30;fontStyle=1" parent="aArPFsjuYElb7sbuWnyS-83" edge="1">
          <mxGeometry width="50" height="50" relative="1" as="geometry">
            <mxPoint y="80" as="sourcePoint" />
            <mxPoint x="60" y="80" as="targetPoint" />
            <Array as="points">
              <mxPoint x="30" y="80" />
            </Array>
          </mxGeometry>
        </mxCell>
        <mxCell id="aArPFsjuYElb7sbuWnyS-87" value="" style="endArrow=none;html=1;rounded=0;strokeWidth=3;fontSize=30;fontStyle=1" parent="aArPFsjuYElb7sbuWnyS-83" edge="1">
          <mxGeometry width="50" height="50" relative="1" as="geometry">
            <mxPoint x="10" y="160" as="sourcePoint" />
            <mxPoint x="50" y="160" as="targetPoint" />
            <Array as="points">
              <mxPoint x="30" y="130" />
            </Array>
          </mxGeometry>
        </mxCell>
        <mxCell id="aArPFsjuYElb7sbuWnyS-88" value="" style="endArrow=classic;html=1;rounded=0;entryX=0;entryY=0.5;entryDx=0;entryDy=0;exitX=1;exitY=0.5;exitDx=0;exitDy=0;strokeWidth=3;fontSize=30;fontStyle=1" parent="1" source="aArPFsjuYElb7sbuWnyS-79" target="aArPFsjuYElb7sbuWnyS-66" edge="1">
          <mxGeometry width="50" height="50" relative="1" as="geometry">
            <mxPoint x="-260" y="710" as="sourcePoint" />
            <mxPoint x="420" y="910" as="targetPoint" />
          </mxGeometry>
        </mxCell>
        <mxCell id="aArPFsjuYElb7sbuWnyS-89" value="" style="endArrow=classic;html=1;rounded=0;exitX=1;exitY=1;exitDx=0;exitDy=0;entryX=0;entryY=0.5;entryDx=0;entryDy=0;strokeWidth=3;fontSize=30;fontStyle=1" parent="1" source="aArPFsjuYElb7sbuWnyS-83" target="aArPFsjuYElb7sbuWnyS-61" edge="1">
          <mxGeometry width="50" height="50" relative="1" as="geometry">
            <mxPoint x="80" y="820" as="sourcePoint" />
            <mxPoint x="450" y="690" as="targetPoint" />
          </mxGeometry>
        </mxCell>
        <mxCell id="aArPFsjuYElb7sbuWnyS-90" value="" style="endArrow=classic;html=1;rounded=0;entryX=0;entryY=0.5;entryDx=0;entryDy=0;exitX=1.056;exitY=0.848;exitDx=0;exitDy=0;exitPerimeter=0;strokeWidth=3;fontSize=30;fontStyle=1" parent="1" source="aArPFsjuYElb7sbuWnyS-83" target="aArPFsjuYElb7sbuWnyS-55" edge="1">
          <mxGeometry width="50" height="50" relative="1" as="geometry">
            <mxPoint x="440" y="810" as="sourcePoint" />
            <mxPoint x="1215" y="990" as="targetPoint" />
          </mxGeometry>
        </mxCell>
        <mxCell id="aArPFsjuYElb7sbuWnyS-91" value="" style="endArrow=classic;html=1;rounded=0;entryX=0;entryY=0.5;entryDx=0;entryDy=0;exitX=1;exitY=0.75;exitDx=0;exitDy=0;strokeWidth=3;fontSize=30;fontStyle=1" parent="1" source="aArPFsjuYElb7sbuWnyS-83" target="aArPFsjuYElb7sbuWnyS-46" edge="1">
          <mxGeometry width="50" height="50" relative="1" as="geometry">
            <mxPoint x="210" y="776" as="sourcePoint" />
            <mxPoint x="992" y="630" as="targetPoint" />
          </mxGeometry>
        </mxCell>
        <mxCell id="aArPFsjuYElb7sbuWnyS-92" value="" style="endArrow=classic;html=1;rounded=0;entryX=0;entryY=0.5;entryDx=0;entryDy=0;exitX=1;exitY=0.5;exitDx=0;exitDy=0;strokeWidth=3;fontSize=30;fontStyle=1" parent="1" source="aArPFsjuYElb7sbuWnyS-83" target="aArPFsjuYElb7sbuWnyS-39" edge="1">
          <mxGeometry width="50" height="50" relative="1" as="geometry">
            <mxPoint x="330" y="720" as="sourcePoint" />
            <mxPoint x="1125" y="350" as="targetPoint" />
          </mxGeometry>
        </mxCell>
        <mxCell id="aArPFsjuYElb7sbuWnyS-93" value="" style="endArrow=classic;html=1;rounded=0;entryX=0;entryY=0.5;entryDx=0;entryDy=0;exitX=1.011;exitY=0.398;exitDx=0;exitDy=0;exitPerimeter=0;strokeWidth=3;fontSize=30;fontStyle=1" parent="1" source="aArPFsjuYElb7sbuWnyS-83" target="aArPFsjuYElb7sbuWnyS-15" edge="1">
          <mxGeometry width="50" height="50" relative="1" as="geometry">
            <mxPoint x="30" y="870" as="sourcePoint" />
            <mxPoint x="825" y="410" as="targetPoint" />
          </mxGeometry>
        </mxCell>
        <mxCell id="aArPFsjuYElb7sbuWnyS-94" value="" style="endArrow=classic;html=1;rounded=0;entryX=0;entryY=0.5;entryDx=0;entryDy=0;exitX=1;exitY=0.25;exitDx=0;exitDy=0;strokeWidth=3;fontSize=30;fontStyle=1" parent="1" source="aArPFsjuYElb7sbuWnyS-83" target="aArPFsjuYElb7sbuWnyS-8" edge="1">
          <mxGeometry width="50" height="50" relative="1" as="geometry">
            <mxPoint x="370" y="894" as="sourcePoint" />
            <mxPoint x="1164" y="110" as="targetPoint" />
          </mxGeometry>
        </mxCell>
        <mxCell id="aArPFsjuYElb7sbuWnyS-95" value="" style="endArrow=classic;html=1;rounded=0;entryX=0;entryY=0.5;entryDx=0;entryDy=0;exitX=0.75;exitY=0;exitDx=0;exitDy=0;strokeWidth=3;fontSize=30;fontStyle=1" parent="1" source="aArPFsjuYElb7sbuWnyS-83" target="aArPFsjuYElb7sbuWnyS-1" edge="1">
          <mxGeometry width="50" height="50" relative="1" as="geometry">
            <mxPoint x="-795" y="360" as="sourcePoint" />
            <mxPoint y="-560" as="targetPoint" />
          </mxGeometry>
        </mxCell>
        <mxCell id="aArPFsjuYElb7sbuWnyS-96" value="&lt;span&gt;&lt;font style=&quot;font-size: 22px;&quot;&gt;Administrator&lt;/font&gt;&lt;/span&gt;" style="text;strokeColor=none;align=center;fillColor=none;html=1;verticalAlign=middle;whiteSpace=wrap;rounded=0;fontStyle=1;fontSize=22;" parent="1" vertex="1">
          <mxGeometry x="2110" y="650" width="100" height="40" as="geometry" />
        </mxCell>
        <mxCell id="aArPFsjuYElb7sbuWnyS-97" value="" style="group;movable=1;resizable=1;rotatable=1;deletable=1;editable=1;locked=0;connectable=1;fontStyle=1" parent="1" vertex="1" connectable="0">
          <mxGeometry x="2130" y="493" width="60" height="160" as="geometry" />
        </mxCell>
        <mxCell id="aArPFsjuYElb7sbuWnyS-98" value="" style="ellipse;whiteSpace=wrap;html=1;aspect=fixed;fontStyle=1" parent="aArPFsjuYElb7sbuWnyS-97" vertex="1">
          <mxGeometry width="60" height="60" as="geometry" />
        </mxCell>
        <mxCell id="aArPFsjuYElb7sbuWnyS-99" value="" style="endArrow=none;html=1;rounded=0;entryX=0.5;entryY=1;entryDx=0;entryDy=0;strokeWidth=3;fontStyle=1" parent="aArPFsjuYElb7sbuWnyS-97" target="aArPFsjuYElb7sbuWnyS-98" edge="1">
          <mxGeometry width="50" height="50" relative="1" as="geometry">
            <mxPoint x="30" y="130" as="sourcePoint" />
            <mxPoint x="90" y="110" as="targetPoint" />
          </mxGeometry>
        </mxCell>
        <mxCell id="aArPFsjuYElb7sbuWnyS-100" value="" style="endArrow=none;html=1;rounded=0;strokeWidth=3;fontStyle=1" parent="aArPFsjuYElb7sbuWnyS-97" edge="1">
          <mxGeometry width="50" height="50" relative="1" as="geometry">
            <mxPoint y="80" as="sourcePoint" />
            <mxPoint x="60" y="80" as="targetPoint" />
            <Array as="points">
              <mxPoint x="30" y="80" />
            </Array>
          </mxGeometry>
        </mxCell>
        <mxCell id="aArPFsjuYElb7sbuWnyS-101" value="" style="endArrow=none;html=1;rounded=0;strokeWidth=3;fontStyle=1" parent="aArPFsjuYElb7sbuWnyS-97" edge="1">
          <mxGeometry width="50" height="50" relative="1" as="geometry">
            <mxPoint x="10" y="160" as="sourcePoint" />
            <mxPoint x="50" y="160" as="targetPoint" />
            <Array as="points">
              <mxPoint x="30" y="130" />
            </Array>
          </mxGeometry>
        </mxCell>
        <mxCell id="aArPFsjuYElb7sbuWnyS-103" value="&lt;span&gt;&lt;font&gt;Manage Users&lt;/font&gt;&lt;/span&gt;" style="ellipse;whiteSpace=wrap;html=1;fontStyle=1;fontSize=30;" parent="1" vertex="1">
          <mxGeometry x="1773" y="-105" width="180" height="120" as="geometry" />
        </mxCell>
        <mxCell id="aArPFsjuYElb7sbuWnyS-104" value="&lt;span&gt;&lt;font&gt;Manage Pets&lt;/font&gt;&lt;/span&gt;" style="ellipse;whiteSpace=wrap;html=1;fontStyle=1;fontSize=30;" parent="1" vertex="1">
          <mxGeometry x="1338" y="-285" width="180" height="120" as="geometry" />
        </mxCell>
        <mxCell id="aArPFsjuYElb7sbuWnyS-105" value="&lt;span&gt;&lt;font&gt;Review Applications&lt;/font&gt;&lt;/span&gt;" style="ellipse;whiteSpace=wrap;html=1;fontStyle=1;fontSize=30;" parent="1" vertex="1">
          <mxGeometry x="1291" width="180" height="120" as="geometry" />
        </mxCell>
        <mxCell id="aArPFsjuYElb7sbuWnyS-106" value="&lt;span&gt;&lt;font&gt;Moderate Reviews&lt;/font&gt;&lt;/span&gt;" style="ellipse;whiteSpace=wrap;html=1;fontStyle=1;fontSize=30;" parent="1" vertex="1">
          <mxGeometry x="968" y="758" width="180" height="120" as="geometry" />
        </mxCell>
        <mxCell id="aArPFsjuYElb7sbuWnyS-107" value="&lt;span&gt;&lt;font&gt;Manage CMS&lt;/font&gt;&lt;/span&gt;" style="ellipse;whiteSpace=wrap;html=1;fontStyle=1;fontSize=30;" parent="1" vertex="1">
          <mxGeometry x="1451" y="514" width="180" height="120" as="geometry" />
        </mxCell>
        <mxCell id="aArPFsjuYElb7sbuWnyS-108" value="&lt;span&gt;&lt;font&gt;Reports&lt;/font&gt;&lt;/span&gt;" style="ellipse;whiteSpace=wrap;html=1;fontStyle=1;fontSize=30;" parent="1" vertex="1">
          <mxGeometry x="1230" y="217" width="180" height="120" as="geometry" />
        </mxCell>
        <mxCell id="aArPFsjuYElb7sbuWnyS-109" value="&lt;span&gt;&lt;font&gt;Security Logs&lt;/font&gt;&lt;/span&gt;" style="ellipse;whiteSpace=wrap;html=1;fontStyle=1;fontSize=30;" parent="1" vertex="1">
          <mxGeometry x="1703" y="665" width="180" height="120" as="geometry" />
        </mxCell>
        <mxCell id="aArPFsjuYElb7sbuWnyS-110" value="&lt;span&gt;Accept/Reject Pet Reviews&lt;/span&gt;" style="ellipse;whiteSpace=wrap;html=1;fontSize=30;fontStyle=1" parent="1" vertex="1">
          <mxGeometry x="1223" y="793" width="180" height="120" as="geometry" />
        </mxCell>
        <mxCell id="aArPFsjuYElb7sbuWnyS-111" value="" style="endArrow=classic;html=1;rounded=0;exitX=1;exitY=1;exitDx=0;exitDy=0;entryX=0;entryY=0.5;entryDx=0;entryDy=0;fontSize=30;fontStyle=1" parent="1" source="aArPFsjuYElb7sbuWnyS-106" target="aArPFsjuYElb7sbuWnyS-110" edge="1">
          <mxGeometry width="50" height="50" relative="1" as="geometry">
            <mxPoint x="635" y="840" as="sourcePoint" />
            <mxPoint x="685" y="790" as="targetPoint" />
          </mxGeometry>
        </mxCell>
        <mxCell id="aArPFsjuYElb7sbuWnyS-112" value="&lt;span&gt;View CMS Pages&lt;/span&gt;" style="ellipse;whiteSpace=wrap;html=1;fontSize=30;fontStyle=1" parent="1" vertex="1">
          <mxGeometry x="1025" y="610" width="180" height="120" as="geometry" />
        </mxCell>
        <mxCell id="aArPFsjuYElb7sbuWnyS-113" value="&lt;span&gt;View CMS Pages&lt;/span&gt;" style="ellipse;whiteSpace=wrap;html=1;fontSize=30;fontStyle=1" parent="1" vertex="1">
          <mxGeometry x="1155" y="437" width="180" height="120" as="geometry" />
        </mxCell>
        <mxCell id="aArPFsjuYElb7sbuWnyS-114" value="" style="endArrow=classic;html=1;rounded=0;exitX=0.108;exitY=0.83;exitDx=0;exitDy=0;entryX=1;entryY=0.5;entryDx=0;entryDy=0;exitPerimeter=0;fontSize=30;fontStyle=1" parent="1" source="aArPFsjuYElb7sbuWnyS-107" target="aArPFsjuYElb7sbuWnyS-112" edge="1">
          <mxGeometry width="50" height="50" relative="1" as="geometry">
            <mxPoint x="1330" y="750" as="sourcePoint" />
            <mxPoint x="1300" y="750" as="targetPoint" />
          </mxGeometry>
        </mxCell>
        <mxCell id="aArPFsjuYElb7sbuWnyS-115" value="" style="endArrow=classic;html=1;rounded=0;exitX=0;exitY=0;exitDx=0;exitDy=0;entryX=1;entryY=0.5;entryDx=0;entryDy=0;fontSize=30;fontStyle=1" parent="1" source="aArPFsjuYElb7sbuWnyS-107" target="aArPFsjuYElb7sbuWnyS-113" edge="1">
          <mxGeometry width="50" height="50" relative="1" as="geometry">
            <mxPoint x="1393" y="650" as="sourcePoint" />
            <mxPoint x="1350" y="674" as="targetPoint" />
          </mxGeometry>
        </mxCell>
        <mxCell id="aArPFsjuYElb7sbuWnyS-116" value="&lt;span&gt;View Statistics&lt;/span&gt;" style="ellipse;whiteSpace=wrap;html=1;fontSize=30;fontStyle=1" parent="1" vertex="1">
          <mxGeometry x="985" y="85" width="180" height="120" as="geometry" />
        </mxCell>
        <mxCell id="aArPFsjuYElb7sbuWnyS-117" value="&lt;span&gt;Download Reports&lt;/span&gt;" style="ellipse;whiteSpace=wrap;html=1;fontSize=30;fontStyle=1" parent="1" vertex="1">
          <mxGeometry x="1007" y="235" width="180" height="120" as="geometry" />
        </mxCell>
        <mxCell id="aArPFsjuYElb7sbuWnyS-118" value="" style="endArrow=classic;html=1;rounded=0;exitX=0;exitY=1;exitDx=0;exitDy=0;entryX=1;entryY=0.5;entryDx=0;entryDy=0;fontSize=30;fontStyle=1" parent="1" source="aArPFsjuYElb7sbuWnyS-108" target="aArPFsjuYElb7sbuWnyS-117" edge="1">
          <mxGeometry width="50" height="50" relative="1" as="geometry">
            <mxPoint x="1078" y="392" as="sourcePoint" />
            <mxPoint x="1030" y="370" as="targetPoint" />
          </mxGeometry>
        </mxCell>
        <mxCell id="aArPFsjuYElb7sbuWnyS-119" value="" style="endArrow=classic;html=1;rounded=0;exitX=0;exitY=0;exitDx=0;exitDy=0;entryX=1;entryY=0.5;entryDx=0;entryDy=0;fontSize=30;fontStyle=1" parent="1" source="aArPFsjuYElb7sbuWnyS-108" target="aArPFsjuYElb7sbuWnyS-116" edge="1">
          <mxGeometry width="50" height="50" relative="1" as="geometry">
            <mxPoint x="1128" y="220" as="sourcePoint" />
            <mxPoint x="1070" y="252" as="targetPoint" />
          </mxGeometry>
        </mxCell>
        <mxCell id="aArPFsjuYElb7sbuWnyS-121" value="" style="endArrow=classic;html=1;rounded=0;exitX=0;exitY=0;exitDx=0;exitDy=0;entryX=0.5;entryY=1;entryDx=0;entryDy=0;fontSize=30;fontStyle=1" parent="1" source="aArPFsjuYElb7sbuWnyS-105" target="aArPFsjuYElb7sbuWnyS-33" edge="1">
          <mxGeometry width="50" height="50" relative="1" as="geometry">
            <mxPoint x="1300" y="105" as="sourcePoint" />
            <mxPoint x="1357" as="targetPoint" />
          </mxGeometry>
        </mxCell>
        <mxCell id="aArPFsjuYElb7sbuWnyS-122" value="" style="endArrow=classic;html=1;rounded=0;strokeWidth=6;exitX=-0.062;exitY=0.106;exitDx=0;exitDy=0;entryX=1;entryY=0.5;entryDx=0;entryDy=0;exitPerimeter=0;fontStyle=1" parent="1" source="aArPFsjuYElb7sbuWnyS-97" target="aArPFsjuYElb7sbuWnyS-105" edge="1">
          <mxGeometry width="50" height="50" relative="1" as="geometry">
            <mxPoint x="1420" y="182" as="sourcePoint" />
            <mxPoint x="1458" y="70" as="targetPoint" />
          </mxGeometry>
        </mxCell>
        <mxCell id="aArPFsjuYElb7sbuWnyS-123" value="" style="endArrow=classic;html=1;rounded=0;strokeWidth=6;exitX=-0.042;exitY=0.184;exitDx=0;exitDy=0;entryX=1;entryY=0.5;entryDx=0;entryDy=0;exitPerimeter=0;fontStyle=1" parent="1" source="aArPFsjuYElb7sbuWnyS-97" target="aArPFsjuYElb7sbuWnyS-108" edge="1">
          <mxGeometry width="50" height="50" relative="1" as="geometry">
            <mxPoint x="2346" y="787" as="sourcePoint" />
            <mxPoint x="1570" y="460" as="targetPoint" />
          </mxGeometry>
        </mxCell>
        <mxCell id="aArPFsjuYElb7sbuWnyS-124" value="" style="endArrow=classic;html=1;rounded=0;strokeWidth=6;exitX=0.021;exitY=0.372;exitDx=0;exitDy=0;entryX=1;entryY=0.5;entryDx=0;entryDy=0;exitPerimeter=0;fontStyle=1" parent="1" source="aArPFsjuYElb7sbuWnyS-97" target="aArPFsjuYElb7sbuWnyS-107" edge="1">
          <mxGeometry width="50" height="50" relative="1" as="geometry">
            <mxPoint x="2347" y="549" as="sourcePoint" />
            <mxPoint x="1750" y="470" as="targetPoint" />
          </mxGeometry>
        </mxCell>
        <mxCell id="aArPFsjuYElb7sbuWnyS-125" value="" style="endArrow=classic;html=1;rounded=0;strokeWidth=6;exitX=-0.042;exitY=0.637;exitDx=0;exitDy=0;entryX=1;entryY=0.5;entryDx=0;entryDy=0;exitPerimeter=0;fontStyle=1" parent="1" source="aArPFsjuYElb7sbuWnyS-97" target="aArPFsjuYElb7sbuWnyS-106" edge="1">
          <mxGeometry width="50" height="50" relative="1" as="geometry">
            <mxPoint x="2581" y="560" as="sourcePoint" />
            <mxPoint x="1960" y="700" as="targetPoint" />
          </mxGeometry>
        </mxCell>
        <mxCell id="aArPFsjuYElb7sbuWnyS-126" value="" style="endArrow=classic;html=1;rounded=0;strokeWidth=6;exitX=-0.021;exitY=0.856;exitDx=0;exitDy=0;exitPerimeter=0;entryX=1;entryY=0.5;entryDx=0;entryDy=0;fontStyle=1" parent="1" source="aArPFsjuYElb7sbuWnyS-97" target="aArPFsjuYElb7sbuWnyS-109" edge="1">
          <mxGeometry width="50" height="50" relative="1" as="geometry">
            <mxPoint x="2567" y="630" as="sourcePoint" />
            <mxPoint x="1410" y="900" as="targetPoint" />
          </mxGeometry>
        </mxCell>
        <mxCell id="aArPFsjuYElb7sbuWnyS-127" value="" style="endArrow=classic;html=1;rounded=0;strokeWidth=6;exitX=0;exitY=0;exitDx=0;exitDy=0;entryX=1;entryY=1;entryDx=0;entryDy=0;fontStyle=1" parent="1" source="aArPFsjuYElb7sbuWnyS-97" target="aArPFsjuYElb7sbuWnyS-104" edge="1">
          <mxGeometry width="50" height="50" relative="1" as="geometry">
            <mxPoint x="2026" y="287" as="sourcePoint" />
            <mxPoint x="1520" y="160" as="targetPoint" />
          </mxGeometry>
        </mxCell>
        <mxCell id="aArPFsjuYElb7sbuWnyS-128" value="" style="endArrow=classic;html=1;rounded=0;strokeWidth=6;entryX=0.795;entryY=0.936;entryDx=0;entryDy=0;exitX=0.5;exitY=0;exitDx=0;exitDy=0;entryPerimeter=0;fontStyle=1" parent="1" source="aArPFsjuYElb7sbuWnyS-97" target="aArPFsjuYElb7sbuWnyS-103" edge="1">
          <mxGeometry width="50" height="50" relative="1" as="geometry">
            <mxPoint x="1770" y="180" as="sourcePoint" />
            <mxPoint x="1730" y="100" as="targetPoint" />
          </mxGeometry>
        </mxCell>
        <mxCell id="aArPFsjuYElb7sbuWnyS-129" value="" style="endArrow=classic;html=1;rounded=0;strokeWidth=6;exitX=-0.021;exitY=0.177;exitDx=0;exitDy=0;entryX=1;entryY=1;entryDx=0;entryDy=0;exitPerimeter=0;fontStyle=1" parent="1" source="aArPFsjuYElb7sbuWnyS-97" target="aArPFsjuYElb7sbuWnyS-15" edge="1">
          <mxGeometry width="50" height="50" relative="1" as="geometry">
            <mxPoint x="2096" y="432" as="sourcePoint" />
            <mxPoint x="1470" y="150" as="targetPoint" />
          </mxGeometry>
        </mxCell>
        <mxCell id="aArPFsjuYElb7sbuWnyS-130" value="" style="endArrow=classic;html=1;rounded=0;exitX=0;exitY=1;exitDx=0;exitDy=0;entryX=0.5;entryY=0;entryDx=0;entryDy=0;fontSize=30;fontStyle=1" parent="1" source="aArPFsjuYElb7sbuWnyS-29" target="aArPFsjuYElb7sbuWnyS-33" edge="1">
          <mxGeometry width="50" height="50" relative="1" as="geometry">
            <mxPoint x="2127" y="450" as="sourcePoint" />
            <mxPoint x="890" y="-60" as="targetPoint" />
          </mxGeometry>
        </mxCell>
        <mxCell id="aArPFsjuYElb7sbuWnyS-132" value="" style="endArrow=classic;html=1;rounded=0;exitX=1;exitY=0.5;exitDx=0;exitDy=0;entryX=0;entryY=0.5;entryDx=0;entryDy=0;fontSize=30;fontStyle=1" parent="1" source="aArPFsjuYElb7sbuWnyS-27" target="aArPFsjuYElb7sbuWnyS-29" edge="1">
          <mxGeometry width="50" height="50" relative="1" as="geometry">
            <mxPoint x="1000" y="-200" as="sourcePoint" />
            <mxPoint x="1020" y="-190" as="targetPoint" />
          </mxGeometry>
        </mxCell>
        <mxCell id="aArPFsjuYElb7sbuWnyS-133" value="" style="endArrow=classic;html=1;rounded=0;exitX=1;exitY=0;exitDx=0;exitDy=0;entryX=0.5;entryY=1;entryDx=0;entryDy=0;fontSize=30;fontStyle=1" parent="1" source="aArPFsjuYElb7sbuWnyS-43" target="aArPFsjuYElb7sbuWnyS-27" edge="1">
          <mxGeometry width="50" height="50" relative="1" as="geometry">
            <mxPoint x="870" y="-190" as="sourcePoint" />
            <mxPoint x="935" y="-190" as="targetPoint" />
          </mxGeometry>
        </mxCell>
        <mxCell id="aArPFsjuYElb7sbuWnyS-134" value="" style="endArrow=classic;html=1;rounded=0;exitX=0;exitY=0.25;exitDx=0;exitDy=0;entryX=1;entryY=0.5;entryDx=0;entryDy=0;fontStyle=1" parent="1" source="aArPFsjuYElb7sbuWnyS-97" target="aArPFsjuYElb7sbuWnyS-46" edge="1">
          <mxGeometry width="50" height="50" relative="1" as="geometry">
            <mxPoint x="1977" y="389" as="sourcePoint" />
            <mxPoint x="1360" y="310" as="targetPoint" />
          </mxGeometry>
        </mxCell>
        <mxCell id="aArPFsjuYElb7sbuWnyS-135" value="" style="endArrow=classic;html=1;rounded=0;exitX=0;exitY=0.5;exitDx=0;exitDy=0;entryX=1;entryY=0.5;entryDx=0;entryDy=0;fontSize=30;fontStyle=1" parent="1" source="aArPFsjuYElb7sbuWnyS-107" target="aArPFsjuYElb7sbuWnyS-55" edge="1">
          <mxGeometry width="50" height="50" relative="1" as="geometry">
            <mxPoint x="1258" y="612" as="sourcePoint" />
            <mxPoint x="1150" y="550" as="targetPoint" />
          </mxGeometry>
        </mxCell>
        <mxCell id="aArPFsjuYElb7sbuWnyS-136" value="" style="endArrow=classic;html=1;rounded=0;exitX=0;exitY=0.5;exitDx=0;exitDy=0;entryX=1.01;entryY=0.369;entryDx=0;entryDy=0;entryPerimeter=0;fontSize=30;fontStyle=1" parent="1" source="aArPFsjuYElb7sbuWnyS-106" target="aArPFsjuYElb7sbuWnyS-61" edge="1">
          <mxGeometry width="50" height="50" relative="1" as="geometry">
            <mxPoint x="1070" y="840" as="sourcePoint" />
            <mxPoint x="1298" y="912" as="targetPoint" />
          </mxGeometry>
        </mxCell>
        <mxCell id="aArPFsjuYElb7sbuWnyS-137" value="&lt;span&gt;Add New Pet&lt;/span&gt;" style="ellipse;whiteSpace=wrap;html=1;fontSize=30;fontStyle=1" parent="1" vertex="1">
          <mxGeometry x="1578" y="-377" width="180" height="120" as="geometry" />
        </mxCell>
        <mxCell id="aArPFsjuYElb7sbuWnyS-138" value="" style="endArrow=classic;html=1;rounded=0;exitX=1;exitY=0;exitDx=0;exitDy=0;entryX=0;entryY=1;entryDx=0;entryDy=0;fontSize=30;fontStyle=1" parent="1" source="aArPFsjuYElb7sbuWnyS-104" target="aArPFsjuYElb7sbuWnyS-137" edge="1">
          <mxGeometry width="50" height="50" relative="1" as="geometry">
            <mxPoint x="907.57" y="-550" as="sourcePoint" />
            <mxPoint x="930.57" y="-518" as="targetPoint" />
          </mxGeometry>
        </mxCell>
        <mxCell id="aArPFsjuYElb7sbuWnyS-139" value="&lt;span&gt;Delete Pet&lt;/span&gt;" style="ellipse;whiteSpace=wrap;html=1;fontSize=30;fontStyle=1" parent="1" vertex="1">
          <mxGeometry x="1365" y="-477" width="180" height="120" as="geometry" />
        </mxCell>
        <mxCell id="aArPFsjuYElb7sbuWnyS-140" value="" style="endArrow=classic;html=1;rounded=0;exitX=0.5;exitY=0;exitDx=0;exitDy=0;entryX=0.5;entryY=1;entryDx=0;entryDy=0;fontSize=30;fontStyle=1" parent="1" source="aArPFsjuYElb7sbuWnyS-104" target="aArPFsjuYElb7sbuWnyS-139" edge="1">
          <mxGeometry width="50" height="50" relative="1" as="geometry">
            <mxPoint x="1147.57" y="-510" as="sourcePoint" />
            <mxPoint x="1117.57" y="-580" as="targetPoint" />
          </mxGeometry>
        </mxCell>
        <mxCell id="aArPFsjuYElb7sbuWnyS-141" value="&lt;span&gt;Edit Pet Information&lt;/span&gt;" style="ellipse;whiteSpace=wrap;html=1;fontSize=30;fontStyle=1" parent="1" vertex="1">
          <mxGeometry x="1155" y="-423" width="180" height="120" as="geometry" />
        </mxCell>
        <mxCell id="aArPFsjuYElb7sbuWnyS-142" value="" style="endArrow=classic;html=1;rounded=0;exitX=0;exitY=0;exitDx=0;exitDy=0;entryX=1;entryY=1;entryDx=0;entryDy=0;fontSize=30;fontStyle=1" parent="1" source="aArPFsjuYElb7sbuWnyS-104" target="aArPFsjuYElb7sbuWnyS-141" edge="1">
          <mxGeometry width="50" height="50" relative="1" as="geometry">
            <mxPoint x="1192.57" y="-550" as="sourcePoint" />
            <mxPoint x="1097.57" y="-540" as="targetPoint" />
          </mxGeometry>
        </mxCell>
        <mxCell id="aArPFsjuYElb7sbuWnyS-143" value="&lt;span&gt;Delete User&lt;/span&gt;" style="ellipse;whiteSpace=wrap;html=1;fontSize=30;fontStyle=1" parent="1" vertex="1">
          <mxGeometry x="1859" y="-274" width="180" height="120" as="geometry" />
        </mxCell>
        <mxCell id="aArPFsjuYElb7sbuWnyS-144" value="" style="endArrow=classic;html=1;rounded=0;exitX=1;exitY=0;exitDx=0;exitDy=0;entryX=0;entryY=1;entryDx=0;entryDy=0;fontSize=30;fontStyle=1" parent="1" source="aArPFsjuYElb7sbuWnyS-103" target="aArPFsjuYElb7sbuWnyS-143" edge="1">
          <mxGeometry width="50" height="50" relative="1" as="geometry">
            <mxPoint x="1535" y="-10" as="sourcePoint" />
            <mxPoint x="1435" y="-90" as="targetPoint" />
          </mxGeometry>
        </mxCell>
        <mxCell id="aArPFsjuYElb7sbuWnyS-145" value="&lt;span&gt;Add User&lt;/span&gt;" style="ellipse;whiteSpace=wrap;html=1;fontSize=30;fontStyle=1" parent="1" vertex="1">
          <mxGeometry x="1652" y="-220" width="180" height="120" as="geometry" />
        </mxCell>
        <mxCell id="aArPFsjuYElb7sbuWnyS-146" value="" style="endArrow=classic;html=1;rounded=0;exitX=0;exitY=0;exitDx=0;exitDy=0;entryX=0.836;entryY=0.921;entryDx=0;entryDy=0;entryPerimeter=0;fontSize=30;fontStyle=1" parent="1" source="aArPFsjuYElb7sbuWnyS-103" target="aArPFsjuYElb7sbuWnyS-145" edge="1">
          <mxGeometry width="50" height="50" relative="1" as="geometry">
            <mxPoint x="1590" y="-190" as="sourcePoint" />
            <mxPoint x="1505" y="-340" as="targetPoint" />
          </mxGeometry>
        </mxCell>
        <mxCell id="aArPFsjuYElb7sbuWnyS-147" value="" style="endArrow=classic;html=1;rounded=0;entryX=1;entryY=0.5;entryDx=0;entryDy=0;exitX=0;exitY=0;exitDx=0;exitDy=0;fontStyle=1" parent="1" source="aArPFsjuYElb7sbuWnyS-98" target="aArPFsjuYElb7sbuWnyS-1" edge="1">
          <mxGeometry width="50" height="50" relative="1" as="geometry">
            <mxPoint x="1830" y="390" as="sourcePoint" />
            <mxPoint x="1570" y="-350" as="targetPoint" />
            <Array as="points">
              <mxPoint x="1277" y="-223" />
            </Array>
          </mxGeometry>
        </mxCell>
        <mxCell id="aArPFsjuYElb7sbuWnyS-148" value="" style="endArrow=classic;html=1;rounded=0;exitX=0;exitY=0.75;exitDx=0;exitDy=0;entryX=1;entryY=0.5;entryDx=0;entryDy=0;fontStyle=1" parent="1" source="aArPFsjuYElb7sbuWnyS-96" target="aArPFsjuYElb7sbuWnyS-66" edge="1">
          <mxGeometry width="50" height="50" relative="1" as="geometry">
            <mxPoint x="2389" y="960" as="sourcePoint" />
            <mxPoint x="1410" y="1233" as="targetPoint" />
          </mxGeometry>
        </mxCell>
        <mxCell id="1lpQqkVCf2K0cbEHT1C8-1" value="" style="endArrow=classic;html=1;rounded=0;exitX=0.961;exitY=0.783;exitDx=0;exitDy=0;exitPerimeter=0;entryX=0.5;entryY=0;entryDx=0;entryDy=0;" edge="1" parent="1" source="aArPFsjuYElb7sbuWnyS-29" target="aArPFsjuYElb7sbuWnyS-31">
          <mxGeometry width="50" height="50" relative="1" as="geometry">
            <mxPoint x="1130" y="-452" as="sourcePoint" />
            <mxPoint x="1180" y="-502" as="targetPoint" />
          </mxGeometry>
        </mxCell>
      </root>
    </mxGraphModel>
  </diagram>
</mxfile>
